<svg width="41" height="41" viewBox="0 0 41 41" fill="none" xmlns="http://www.w3.org/2000/svg">
    <g clip-path="url(#clip0)">
    <path d="M6.81241 36.4299C6.66355 36.2809 6.45694 36.1953 6.24634 36.1953C6.03573 36.1953 5.82913 36.2809 5.68019 36.4299C5.53124 36.579 5.44556 36.7855 5.44556 36.9961C5.44556 37.2067 5.53116 37.4133 5.68019 37.5622C5.82913 37.7111 6.03573 37.7969 6.24634 37.7969C6.45694 37.7969 6.66355 37.7112 6.81241 37.5622C6.96136 37.4133 7.04712 37.2067 7.04712 36.9961C7.04712 36.7855 6.96144 36.5789 6.81241 36.4299Z" fill="#85BB65"/>
    <path d="M37.5986 14.6492C37.4497 14.5002 37.2439 14.4146 37.0325 14.4146C36.8219 14.4146 36.6153 14.5002 36.4663 14.6492C36.3175 14.7981 36.2317 15.0047 36.2317 15.2153C36.2317 15.4259 36.3174 15.6325 36.4663 15.7814C36.6153 15.9303 36.8219 16.0161 37.0325 16.0161C37.2439 16.0161 37.4497 15.9304 37.5986 15.7814C37.7483 15.6325 37.834 15.4259 37.834 15.2153C37.834 15.0047 37.7483 14.7981 37.5986 14.6492Z" fill="#85BB65"/>
    <path d="M40.7655 0.234549C40.6153 0.0844023 40.4116 0 40.1991 0L20.5004 0.00104102C20.0582 0.00104102 19.6997 0.359631 19.6997 0.801822V3.09182L12.1092 5.12572C11.6819 5.24023 11.4284 5.6793 11.5429 6.10644L15.4769 20.7881L12.0737 24.1914C11.6405 23.5589 10.9133 23.143 10.0906 23.143H2.40336C1.07871 23.143 0.00109863 24.2207 0.00109863 25.5452V38.5977C0.00109863 39.9223 1.07871 41 2.40336 41H10.0907C11.216 41 12.1627 40.222 12.4222 39.1758L13.3743 40.0061C14.1093 40.6471 15.0511 41.0001 16.0263 41.0001H40.1993C40.6415 41.0001 41.0001 40.6415 41.0001 40.1993V0.800781C40.9999 0.588414 40.9157 0.384695 40.7655 0.234549ZM10.8913 38.5977C10.8913 39.0392 10.5321 39.3985 10.0905 39.3985H2.40328C1.96173 39.3985 1.6025 39.0393 1.6025 38.5977V25.5453C1.6025 25.1038 1.96173 24.7445 2.40328 24.7445H5.44617V33.9691C5.44617 34.4113 5.80476 34.7699 6.24695 34.7699C6.68914 34.7699 7.04773 34.4113 7.04773 33.9691V24.7445H10.0906C10.5322 24.7445 10.8914 25.1038 10.8914 25.5453V38.5977H10.8913ZM13.2971 6.46543L19.6997 4.74983V7.71713L19.163 7.86095C18.9578 7.91596 18.7829 8.05009 18.6768 8.23403C18.5706 8.41797 18.5417 8.63651 18.5968 8.84167C18.9045 9.99007 18.2206 11.1747 17.0722 11.4824C16.8668 11.5375 16.6916 11.6719 16.5855 11.8562C16.4794 12.0405 16.4508 12.2594 16.5063 12.4647L19.6277 24.023H18.0205L17.1923 20.7828C17.1659 20.6796 17.1198 20.5846 17.0581 20.5019L13.2971 6.46543ZM19.6997 11.3894V18.1465L18.2391 12.7384C18.8492 12.4234 19.3485 11.9521 19.6997 11.3894ZM31.204 39.3984H16.0262C15.438 39.3984 14.87 39.1856 14.4267 38.7991L12.4929 37.1125V26.0372L15.9889 22.5411L16.623 25.0219C16.7136 25.3764 17.0329 25.6244 17.3988 25.6244L33.1425 25.6253C33.7607 25.6253 34.2636 26.1282 34.2636 26.7464C34.2636 27.3646 33.7607 27.8675 33.1425 27.8675H25.0754C24.6332 27.8675 24.2746 28.2261 24.2746 28.6683C24.2746 29.1105 24.6332 29.4691 25.0754 29.4691H35.6489C36.2671 29.4691 36.77 29.972 36.77 30.5902C36.77 31.2084 36.2671 31.7113 35.6489 31.7113H25.0754C24.6332 31.7113 24.2746 32.0698 24.2746 32.512C24.2746 32.9542 24.6332 33.3128 25.0754 33.3128H33.9355C34.5537 33.3128 35.0566 33.8157 35.0566 34.4339C35.0566 35.0521 34.5537 35.555 33.9355 35.555H25.0754C24.6332 35.555 24.2746 35.9136 24.2746 36.3558C24.2746 36.798 24.6332 37.1566 25.0754 37.1566H31.204C31.8222 37.1566 32.3251 37.6595 32.3251 38.2777C32.325 38.8955 31.8221 39.3984 31.204 39.3984ZM39.3985 39.3984H39.3984H33.6841C33.8394 39.0563 33.9266 38.6769 33.9266 38.2773C33.9266 37.8778 33.8394 37.4984 33.6841 37.1562H33.9355C35.4367 37.1562 36.6581 35.9349 36.6581 34.4337C36.6581 33.9958 36.5536 33.582 36.3691 33.2151C37.5219 32.8985 38.3714 31.8419 38.3714 30.59C38.3714 29.9827 38.1714 29.4213 37.834 28.968V18.8189C37.834 18.3767 37.4754 18.0181 37.0332 18.0181C36.591 18.0181 36.2324 18.3767 36.2324 18.8189V27.9312C36.0443 27.8899 35.8491 27.8675 35.6488 27.8675H35.6225C35.7778 27.5253 35.865 27.146 35.865 26.7464C35.865 25.2451 34.6436 24.0238 33.1424 24.0238H31.8551C33.222 23.4377 34.182 22.0791 34.182 20.5C34.182 18.3868 32.4628 16.6676 30.3497 16.6676C28.2366 16.6676 26.5174 18.3868 26.5174 20.5C26.5174 22.0791 27.4774 23.4377 28.8442 24.0238H24.4669V8.79762C25.8974 8.48588 27.0262 7.35718 27.3378 5.92658H33.3614C33.6731 7.35718 34.8018 8.48588 36.2324 8.79762V11.2873C36.2324 11.7294 36.591 12.088 37.0331 12.088C37.4753 12.088 37.8339 11.7294 37.8339 11.2873V8.08269C37.8339 7.64049 37.4753 7.2819 37.0331 7.2819C35.8442 7.2819 34.8771 6.31464 34.8771 5.1258C34.8771 4.68361 34.5185 4.32502 34.0763 4.32502H26.623C26.1808 4.32502 25.8222 4.68361 25.8222 5.1258C25.8222 6.31472 24.855 7.2819 23.6662 7.2819C23.224 7.2819 22.8654 7.64049 22.8654 8.08269V24.0238H21.3013V1.60244L39.3985 1.60156V39.3984ZM30.3498 22.7308C29.1197 22.7308 28.1191 21.7301 28.1191 20.5001C28.1191 19.2701 29.1198 18.2693 30.3498 18.2693C31.5798 18.2693 32.5806 19.27 32.5806 20.5C32.5806 21.73 31.5799 22.7308 30.3498 22.7308Z" fill="#85BB65"/>
    </g>
    <defs>
    <clipPath id="clip0">
    <rect width="41" height="41" fill="white"/>
    </clipPath>
    </defs>
</svg>
